<?xml version="1.0" encoding="UTF-8"?>
<svg id="Layer_1" data-name="Layer 1" xmlns="http://www.w3.org/2000/svg" viewBox="0 0 24 24">
  <defs>
    <style>
      .cls-1, .cls-2 {
        stroke-miterlimit: 10;
      }

      .cls-1, .cls-2, .cls-3 {
        fill: #fff;
        stroke: #000;
        stroke-width: .5px;
      }

      .cls-1, .cls-3 {
        stroke-linecap: round;
      }

      .cls-3 {
        stroke-linejoin: round;
      }
    </style>
  </defs>
  <g>
    <polyline class="cls-3" points="4.81 11.82 7.3 7.47 9.64 11.82"/>
    <path class="cls-3" d="M4.83,11.94h4.81c0,1.08-.88,1.96-1.96,1.96h-.9c-1.08,0-1.96-.88-1.96-1.96h0Z"/>
  </g>
  <g>
    <polyline class="cls-3" points="14.36 11.82 16.86 7.47 19.19 11.82"/>
    <path class="cls-3" d="M14.37,11.88h4.81c0,1.08-.88,1.96-1.96,1.96h-.9c-1.08,0-1.96-.88-1.96-1.96h0Z"/>
  </g>
  <path class="cls-2" d="M12.07,14.9h0c.89,0,1.62.73,1.62,1.62v.52h-3.24v-.52c0-.89.73-1.62,1.62-1.62Z"/>
  <path class="cls-2" d="M9.9,17.9h4.34c.62,0,1.12.5,1.12,1.12v1.03h-6.57v-1.03c0-.62.5-1.12,1.12-1.12Z"/>
  <line class="cls-1" x1="12.1" y1="4.01" x2="12.1" y2="14.9"/>
  <line class="cls-1" x1="5.25" y1="7.42" x2="18.9" y2="7.42"/>
  <circle cx="12.1" cy="7.42" r=".78"/>
</svg>