<?xml version="1.0" encoding="UTF-8"?>
<svg id="Layer_1" data-name="Layer 1" xmlns="http://www.w3.org/2000/svg" viewBox="0 0 24 24">
  <defs>
    <style>
      .cls-1 {
        fill: #1769ff;
        stroke-width: .25px;
      }

      .cls-1, .cls-2, .cls-3, .cls-4 {
        stroke: #000;
      }

      .cls-1, .cls-3, .cls-4 {
        stroke-miterlimit: 10;
      }

      .cls-2 {
        stroke-linejoin: round;
      }

      .cls-2, .cls-3, .cls-4 {
        stroke-width: .5px;
      }

      .cls-2, .cls-4 {
        fill: none;
      }

      .cls-3 {
        fill: #fff;
      }
    </style>
  </defs>
  <path d="M14.37,8.66c.1.11.07.31.07.45.4-.03.8.29.86.69.06.47-.48.61-.63.23-.04-.1,0-.22-.14-.26-.09-.03-.71-.03-.81,0-.21.05-.18.71-.08.8.16.16.96-.12,1.38.25.32.28.32.82.28,1.23-.04.42-.43.76-.86.72.03.27,0,.58-.35.55-.38-.03-.27-.53-.29-.55-.01-.01-.25-.01-.36-.06-.53-.21-.72-1.15-.12-1.08.33.04.21.42.38.48.07.02.77.03.84,0,.17-.05.15-.72.05-.8-.19-.17-.97.13-1.38-.25-.45-.41-.41-1.62.23-1.89.11-.05.34-.05.35-.06.02-.02-.06-.33.12-.48.13-.1.34-.1.45.03Z"/>
  <path class="cls-4" d="M12.7,6.43h2.93c.48.43,1.15,1.11,1.78,2.05.72,1.07,1.26,1.85,1.36,2.93.07.8-.15,1.56-.15,1.56s-.04.16-.1.31c-.23.65-1.34,1.99-3,3.55.41-.14.71-.49.76-.89.06-.51-.29-1.03-.85-1.18-1.62,0-3.24,0-4.87,0-.37-.49-1.25-1.8-1.08-3.46.13-1.26.81-2.16,1.5-3.08.61-.82,1.25-1.41,1.73-1.79Z"/>
  <rect class="cls-4" x="12.34" y="5.38" width="3.55" height="1.01" rx=".5" ry=".5"/>
  <path class="cls-2" d="M12.79,5.34l-.82-1.77c.14.09.82.5,1.93.53,1.25.03,2.05-.45,2.17-.53-.18.59-.36,1.18-.54,1.77h-2.73Z"/>
  <rect class="cls-1" x="4.79" y="15.04" width="4.17" height="5.19" rx="1.01" ry="1.01"/>
  <path class="cls-3" d="M10.42,14.67h4.65c.64,0,1.16.52,1.16,1.16v.54l2.72-2.72c.45-.45,1.19-.45,1.64,0h0c.45.45.45,1.19,0,1.64l-4.85,4.85c-.22.22-.51.34-.82.34h-3.31c-1.3,0-2.35-1.05-2.35-2.35v-2.3c0-.64.52-1.16,1.16-1.16Z"/>
  <path class="cls-3" d="M12.53,14.67h2.6c.65,0,1.19.53,1.19,1.19h0c0,.65-.53,1.19-1.19,1.19h-2.34"/>
</svg>